<svg id="Capa_1" data-name="Capa 1" xmlns="http://www.w3.org/2000/svg" viewBox="0 0 600 114.32"><defs><style>.cls-1{fill:#ecdd00;}.cls-2{fill:#3f403f;}</style></defs><title>logo_horizontal</title><polygon class="cls-1" points="49.5 0 0 28.58 0 85.74 49.5 114.32 49.66 114.22 49.66 102.74 49.66 97.83 49.66 83.13 33.33 75.95 33.33 88.4 14.38 77.46 14.38 36.71 33.33 25.77 33.33 64.51 49.66 70.72 49.66 16.34 49.66 10.27 49.66 0.09 49.5 0"/><polygon class="cls-1" points="55.05 0 104.56 28.58 104.56 85.74 55.05 114.32 54.89 114.22 54.89 102.74 54.89 97.83 54.89 83.13 71.23 75.95 71.23 88.4 90.18 77.46 90.18 36.71 71.23 25.77 71.23 64.51 54.89 70.72 54.89 16.34 54.89 10.27 54.89 0.09 55.05 0"/><path class="cls-2" d="M153.78,82.05h-14q-6.89,0-6.89-6.06V41.09q0-6.06,6.89-6.06h14q11.53,1.32,15.89,12.74a28.52,28.52,0,0,1,2.16,10.78,28.22,28.22,0,0,1-2.16,10.75Q165.31,80.73,153.78,82.05ZM159,58.12q0-13.27-9.85-13.62h-2.51V72.36l2.51.07Q159.07,71.39,159,58.12Z" transform="translate(-3 -0.36)"/><path class="cls-2" d="M211.85,69.3a10.6,10.6,0,0,1-5.66,9.87,27.26,27.26,0,0,1-25.74,0,10.58,10.58,0,0,1-5.66-9.87V41.09q0-6.06,6.89-6.06t6.9,6.06V67.28q0,4,4.74,4c3.16,0,4.73-1.32,4.73-4V41.09q0-6.06,6.9-6.06t6.9,6.06Z" transform="translate(-3 -0.36)"/><path class="cls-2" d="M229.12,66.37V76q0,6.06-6.89,6.06T215.33,76V41.23q0-6.06,6.9-6.06h15.6a12.3,12.3,0,0,1,9.74,4.58,15.6,15.6,0,0,1,3.76,10.9,16.72,16.72,0,0,1-4.34,11,13.79,13.79,0,0,1-10.83,4.7Zm0-21.87V55.23h4q5.86,0,5.86-5.37t-5.86-5.36Z" transform="translate(-3 -0.36)"/><path class="cls-2" d="M278.86,82.05H261.17q-6.9,0-6.9-6.06V41.09q0-6.06,6.9-6.06t6.89,6.06V71h10.8q4.32,0,4.32,5.54T278.86,82.05Z" transform="translate(-3 -0.36)"/><path class="cls-2" d="M293.56,82.05q-6.9,0-6.9-6.06V41.09q0-6.06,6.9-6.06h16.72c3.58,0,5.36,1.84,5.36,5.53s-1.78,5.54-5.36,5.54h-9.82v6.76h8.43q5.36,0,5.36,5.57T308.89,64h-8.43v7h9.82c3.58,0,5.36,1.85,5.36,5.54s-1.78,5.54-5.36,5.54Z" transform="translate(-3 -0.36)"/><path class="cls-2" d="M351.21,58.85,364.09,72.5a6.62,6.62,0,0,1,1.4,4,4.9,4.9,0,0,1-2.08,3.82,8.21,8.21,0,0,1-5.12,1.79,6.16,6.16,0,0,1-4.92-1.93L342,68.05,330.66,80.17a6.23,6.23,0,0,1-5,2,7.93,7.93,0,0,1-5-1.83,5,5,0,0,1-2.06-3.85,6.62,6.62,0,0,1,1.4-4l12.82-13.65L320,44.85a6.67,6.67,0,0,1-1.4-4,5.24,5.24,0,0,1,2-4,7.89,7.89,0,0,1,5.05-1.91,6.07,6.07,0,0,1,5,2L342,49.45,353.37,37a6.16,6.16,0,0,1,5-2,7.87,7.87,0,0,1,5.1,1.87,5.17,5.17,0,0,1,2.06,3.95,6.71,6.71,0,0,1-1.4,4.06Z" transform="translate(-3 -0.36)"/><path class="cls-2" d="M406.62,82.05h-14q-6.9,0-6.9-6.06V41.09q0-6.06,6.9-6.06h14q11.53,1.32,15.89,12.74a28.7,28.7,0,0,1,2.15,10.78,28.4,28.4,0,0,1-2.15,10.75Q418.15,80.73,406.62,82.05Zm5.26-23.93q0-13.27-9.86-13.62h-2.5V72.36l2.5.07Q411.92,71.39,411.88,58.12Z" transform="translate(-3 -0.36)"/><path class="cls-2" d="M476.91,58.08q0,10.9-7.07,17.65t-17.9,6.74q-10.83,0-17.84-6.74t-7-17.65q0-10.89,7-17.67t18-6.78q11,0,17.93,6.78T476.91,58.08ZM460.4,49.34a11.87,11.87,0,0,0-16.75,0,12.42,12.42,0,0,0-3.17,8.74,12.23,12.23,0,0,0,3.17,8.69A10.87,10.87,0,0,0,452,70.21a10.76,10.76,0,0,0,8.35-3.45,12.38,12.38,0,0,0,3.16-8.71A12.46,12.46,0,0,0,460.4,49.34Z" transform="translate(-3 -0.36)"/><path class="cls-2" d="M523,73.6c0,1.69-1.34,3.58-4,5.7s-7.61,3.17-14.84,3.17S491,80.22,486.35,75.73s-7-10.38-7-17.65,2.32-13.16,7-17.67,10.62-6.78,17.95-6.78,12.29,1.06,14.87,3.17,3.89,4,3.89,5.7A6.76,6.76,0,0,1,521.36,47a4.83,4.83,0,0,1-3.68,2,21.87,21.87,0,0,1-6.34-1.53,21.59,21.59,0,0,0-6.49-1.54q-11.72,0-11.71,12.16t11.71,12.16a21.91,21.91,0,0,0,6.49-1.54,21.87,21.87,0,0,1,6.34-1.53,4.83,4.83,0,0,1,3.68,2A6.76,6.76,0,0,1,523,73.6Z" transform="translate(-3 -0.36)"/><path class="cls-2" d="M552.32,46.1v30q0,6.06-6.9,6.06t-6.89-6.06v-30h-7c-3.71,0-5.57-1.84-5.57-5.54S527.85,35,531.56,35h27.8q5.57,0,5.57,5.53c0,3.7-1.86,5.54-5.57,5.54Z" transform="translate(-3 -0.36)"/><path class="cls-2" d="M574,73.76l-1.32,3.55c-1.19,3.16-3.13,4.74-5.84,4.74s-4.64-.83-5.81-2.49a8,8,0,0,1-1.76-4.48,9.36,9.36,0,0,1,.87-3.9l14.35-31.42Q576.67,35,581.09,35t6.58,4.73l14.42,31.42a9.18,9.18,0,0,1,.91,3.94,8.06,8.06,0,0,1-1.71,4.45c-1.13,1.65-3.08,2.48-5.83,2.48s-4.72-1.58-5.9-4.74l-1.33-3.55Zm10.1-11.15-3-8.15-3,8.15Z" transform="translate(-3 -0.36)"/></svg>